<?xml version="1.0" encoding="iso-8859-1"?>
<!-- Generator: Adobe Illustrator 18.1.1, SVG Export Plug-In . SVG Version: 6.00 Build 0)  -->
<svg version="1.1" id="Capa_1" xmlns="http://www.w3.org/2000/svg" xmlns:xlink="http://www.w3.org/1999/xlink" x="0px" y="0px"
	 viewBox="0 0 56.864 56.864" style="enable-background:new 0 0 56.864 56.864;" xml:space="preserve">
<g>
	<g>
		<circle style="fill:#010002;" cx="35.204" cy="7.093" r="7.093"/>
		<path style="fill:#010002;" d="M47.824,25.536c-0.882-1.635-2.918-2.244-4.554-1.362l-4.606,2.484
			c-0.605-1.066-1.115-2.052-1.637-3.068c-0.601-1.168-2.967-5.958-4.01-7.137c-2.107-2.383-6.625-2.73-8.743,0.017
			c-4.834,6.269-9.049,14.271-8.313,24.811c0,0,0.055,1.799,2.237,1.799c0.037,0,0.072,0,0.109,0l2.28,5.918l-8.016-0.012
			c-0.002,0-0.004,0-0.006,0c-2.167,0-3.925,1.756-3.928,3.922c-0.003,2.17,1.753,3.932,3.923,3.935l13.748,0.021
			c0.002,0,0.004,0,0.006,0c1.293,0,2.504-0.637,3.238-1.703c0.732-1.066,0.895-2.429,0.429-3.639l-3.275-8.499
			c1.903-0.157,1.514-1.312,1.461-1.963c-0.856-5.629,0.326-8.585,3.439-13.319c0.779,1.5,1.659,3.092,2.925,5.047
			c0.982,1.517,2.2,2.385,4.784,1.154l7.147-3.852C48.093,29.208,48.704,27.167,47.824,25.536z"/>
	</g>
</g>
<g>
</g>
<g>
</g>
<g>
</g>
<g>
</g>
<g>
</g>
<g>
</g>
<g>
</g>
<g>
</g>
<g>
</g>
<g>
</g>
<g>
</g>
<g>
</g>
<g>
</g>
<g>
</g>
<g>
</g>
</svg>
